<?xml version="1.0" encoding="UTF-8"?> <svg xmlns="http://www.w3.org/2000/svg" height="67" viewBox="0 0 196 67" width="196"><g fill="none" fill-rule="evenodd"><path d="M0 0h42v46a21 21 0 0 1-42 0z" fill="#000"></path><path d="m27.03 48.36-.8.3V36.75h2.56V51h-2.56L15.48 39.45l.77-.3V51h-2.53V36.74h2.53z" fill="#fff" fill-rule="nonzero"></path><g fill="#000" fill-rule="nonzero"><path d="m63.03 48.36-.8.3V36.75h2.56V51h-2.56L51.48 39.45l.77-.3V51h-2.53V36.74h2.53zM80 44.97v-8.23h2.53v8.43c0 .9-.12 1.68-.36 2.37s-.6 1.25-1.04 1.72-.97.86-1.58 1.16-1.27.51-2 .65-1.47.2-2.28.2c-.82 0-1.6-.07-2.34-.2s-1.42-.35-2.03-.65-1.13-.69-1.57-1.16-.78-1.04-1.02-1.72-.37-1.48-.37-2.37v-8.43h2.53v8.23c0 1.12.22 1.96.64 2.54s1 .98 1.72 1.2 1.53.31 2.44.31c.88 0 1.67-.1 2.39-.32s1.28-.6 1.7-1.19.64-1.42.64-2.54zM95.83 49.68h-1.17l7.64-12.94h2.53V51h-2.53V40.35l.57.18L96.64 51h-2.77l-6.23-10.45.58-.15V51h-2.53V36.74h2.53zM110.51 44.95v3.87h10.12V51h-12.65V36.74h12.63v2.18h-10.1v3.94h8.28v2.09zm2.53-10.01 2.77-3.5h3.3l-3.71 3.5zM123.4 51V36.74h8.53c1.07 0 2 .15 2.77.45s1.38.77 1.8 1.4.64 1.41.64 2.38c0 .66-.1 1.22-.33 1.68s-.52.84-.92 1.13-.85.52-1.38.68-1.08.25-1.68.3l-.22-.16c.94.03 1.73.12 2.36.27s1.1.44 1.43.85.48 1.02.48 1.83V51h-2.55v-3.32c0-.56-.1-1-.29-1.3s-.53-.52-1.01-.65-1.17-.19-2.05-.19h-5.06V51zm2.52-7.52h6.01c.88 0 1.55-.22 2-.65s.68-1.01.68-1.73c0-.69-.22-1.22-.68-1.58s-1.12-.55-2-.55h-6zM140.37 36.74h2.55V51h-2.55zM153 50.05h2.5v5.35H153zm1.24 1.21c-1.69 0-3.16-.3-4.41-.9s-2.23-1.45-2.9-2.55-1.03-2.41-1.03-3.94.34-2.84 1.02-3.95 1.65-1.95 2.9-2.55 2.73-.89 4.42-.89c1.71 0 3.2.3 4.43.9s2.2 1.44 2.9 2.54 1.03 2.43 1.03 3.95-.35 2.84-1.04 3.94-1.65 1.95-2.89 2.55-2.72.9-4.43.9zm0-2.24c1.11 0 2.1-.19 2.96-.56s1.53-.94 2.02-1.7.74-1.73.74-2.89c0-1.14-.25-2.1-.74-2.86-.49-.76-1.16-1.33-2.02-1.71s-1.85-.58-2.96-.58c-1.1 0-2.09.2-2.96.58s-1.56.95-2.06 1.71-.75 1.72-.75 2.86c0 1.16.25 2.12.75 2.88.5.77 1.19 1.34 2.06 1.7s1.86.57 2.96.57zM177.24 44.97v-8.23h2.53v8.43c0 .9-.12 1.68-.36 2.37s-.6 1.25-1.04 1.72-.97.86-1.58 1.16-1.27.51-2 .65-1.47.2-2.28.2c-.82 0-1.6-.07-2.34-.2s-1.42-.35-2.03-.65-1.13-.69-1.57-1.16-.78-1.04-1.02-1.72-.37-1.48-.37-2.37v-8.43h2.53v8.23c0 1.12.22 1.96.64 2.54s1 .98 1.72 1.2 1.53.31 2.44.31c.88 0 1.67-.1 2.39-.32s1.28-.6 1.7-1.19.64-1.42.64-2.54zM185.46 44.95v3.87h10.12V51h-12.65V36.74h12.62v2.18h-10.1v3.94h8.28v2.09z"></path></g></g></svg> 